<svg width="18" height="20" viewBox="0 0 18 20" fill="none" xmlns="http://www.w3.org/2000/svg">
<path d="M8.37644 18.2266H4.69581C4.024 18.2265 3.37438 17.986 2.86452 17.5486C2.35466 17.1111 2.01824 16.5056 1.91612 15.8416L0.73956 8.19906C0.698468 7.93186 0.715643 7.65893 0.789909 7.39899C0.864174 7.13904 0.993774 6.89823 1.16982 6.69307C1.34587 6.4879 1.5642 6.32323 1.80985 6.21034C2.0555 6.09746 2.32265 6.03903 2.593 6.03906H13.2233C13.4937 6.03903 13.7608 6.09746 14.0065 6.21034C14.2521 6.32323 14.4704 6.4879 14.6465 6.69307C14.8225 6.89823 14.9521 7.13904 15.0264 7.39899C15.1007 7.65893 15.1178 7.93186 15.0767 8.19906L14.8302 9.80031M11.6577 16.3516H17.2827M14.4702 13.5391V19.1641M5.09519 8.85156V4.16406C5.09519 3.41814 5.3915 2.70277 5.91895 2.17532C6.44639 1.64788 7.16176 1.35156 7.90769 1.35156C8.65361 1.35156 9.36898 1.64788 9.89642 2.17532C10.4239 2.70277 10.7202 3.41814 10.7202 4.16406V8.85156" stroke="currentColor" stroke-width="1.4" stroke-linecap="round" stroke-linejoin="round"/>
</svg>
