<svg width="17" height="19" viewBox="0 0 17 19" fill="none" xmlns="http://www.w3.org/2000/svg">
<path d="M7.84616 18.4375H5.10304C4.43122 18.4375 3.78161 18.197 3.27175 17.7595C2.76189 17.322 2.42546 16.7165 2.32335 16.0525L1.14679 8.41C1.10569 8.1428 1.12287 7.86987 1.19714 7.60992C1.2714 7.34998 1.401 7.10917 1.57705 6.904C1.7531 6.69884 1.97143 6.53417 2.21708 6.42128C2.46273 6.3084 2.72988 6.24997 3.00022 6.25H13.6305C13.9009 6.24997 14.168 6.3084 14.4137 6.42128C14.6593 6.53417 14.8777 6.69884 15.0537 6.904C15.2298 7.10917 15.3594 7.34998 15.4336 7.60992C15.5079 7.86987 15.5251 8.1428 15.484 8.41L15.0152 11.455M5.50241 9.0625V4.375C5.50241 3.62908 5.79873 2.91371 6.32617 2.38626C6.85362 1.85882 7.56899 1.5625 8.31491 1.5625C9.06083 1.5625 9.7762 1.85882 10.3037 2.38626C10.8311 2.91371 11.1274 3.62908 11.1274 4.375V9.0625M11.1274 16.5625L13.0024 18.4375L16.7524 14.6875" stroke="currentColor" stroke-width="1.4" stroke-linecap="round" stroke-linejoin="round"/>
</svg>
