<svg width="17" height="19" viewBox="0 0 17 19" fill="none" xmlns="http://www.w3.org/2000/svg" aria-hidden="true" focusable="false" tabindex="-1">
<path fill-rule="evenodd" clip-rule="evenodd" d="M8.79615 1.7623C8.23588 1.7623 7.69856 1.98487 7.30239 2.38104C6.90622 2.77721 6.68365 3.31454 6.68365 3.8748V5.0498H10.9087V3.8748C10.9087 3.31453 10.6861 2.77721 10.2899 2.38104C9.89374 1.98487 9.35642 1.7623 8.79615 1.7623ZM12.3087 5.0498V3.8748C12.3087 2.94323 11.9386 2.04981 11.2799 1.39109C10.6211 0.73237 9.72772 0.362305 8.79615 0.362305C7.86458 0.362305 6.97116 0.732371 6.31244 1.39109C5.65372 2.04981 5.28365 2.94323 5.28365 3.8748V5.0498H3.48155M5.28365 6.4498H3.48146C3.31205 6.44978 3.14455 6.4864 2.99061 6.55714C2.83667 6.62788 2.69984 6.73108 2.58952 6.85965C2.4792 6.98822 2.39798 7.13912 2.35144 7.30202C2.30491 7.46489 2.29414 7.63588 2.31987 7.80329C2.31987 7.80326 2.31988 7.80333 2.31987 7.80329L3.49644 15.4458C3.57314 15.9445 3.82585 16.3995 4.20881 16.728C4.59176 17.0566 5.07968 17.2373 5.58427 17.2373C5.58426 17.2373 5.58429 17.2373 5.58427 17.2373H12.008C12.5128 17.2374 13.0011 17.0569 13.3842 16.7283C13.7673 16.3997 14.0201 15.9448 14.0968 15.4459L15.2733 7.8034C15.2733 7.80344 15.2734 7.80337 15.2733 7.8034C15.2991 7.63599 15.2883 7.46488 15.2418 7.30202C15.1953 7.13913 15.114 6.98822 15.0037 6.85965C14.8934 6.73108 14.7566 6.62788 14.6026 6.55714C14.4487 6.4864 14.2813 6.44978 14.1119 6.4498H12.3087V8.5623C12.3087 8.9489 11.9952 9.2623 11.6087 9.2623C11.2221 9.2623 10.9087 8.9489 10.9087 8.5623V6.4498H6.68365V8.5623C6.68365 8.9489 6.37025 9.2623 5.98365 9.2623C5.59705 9.2623 5.28365 8.9489 5.28365 8.5623V6.4498ZM12.3087 5.0498H14.1117C14.1117 5.0498 14.1117 5.0498 14.1117 5.0498C14.4829 5.04977 14.8499 5.13001 15.1872 5.28503C15.5246 5.44006 15.8244 5.66621 16.0662 5.94797C16.308 6.22973 16.4859 6.56044 16.5879 6.91743C16.6899 7.27442 16.7135 7.64925 16.6571 8.0162L15.4805 15.6587C15.4805 15.6587 15.4805 15.6587 15.4805 15.6587C15.3529 16.4881 14.9326 17.2446 14.2956 17.7909C13.6587 18.3373 12.8472 18.6375 12.008 18.6373C12.008 18.6373 12.0081 18.6373 12.008 18.6373H5.58427C4.74525 18.6373 3.93393 18.3369 3.29717 17.7906C2.66044 17.2442 2.24029 16.488 2.11274 15.6588C2.11273 15.6588 2.11274 15.6589 2.11274 15.6588L0.936175 8.01631C0.879742 7.64936 0.903312 7.27442 1.0053 6.91743C1.1073 6.56044 1.28528 6.22973 1.52705 5.94797C1.76882 5.66621 2.06867 5.44006 2.40602 5.28503C2.74336 5.13001 3.1103 5.04977 3.48155 5.0498" fill="currentColor"/>
</svg>
