<svg width="281" height="281" viewBox="0 0 281 281" fill="none" xmlns="http://www.w3.org/2000/svg">
<g filter="url(#filter0_f_22304_27347)">
<circle cx="140.463" cy="140.26" r="60" fill="url(#paint0_radial_22304_27347)"/>
</g>
<path d="M70.3537 119.092L71.0177 115.061L71.6817 119.092C71.9952 120.996 73.4871 122.487 75.3905 122.801L79.4219 123.465L75.3905 124.129C73.4871 124.443 71.9952 125.934 71.6817 127.838L71.0177 131.869L70.3537 127.838C70.0402 125.934 68.5483 124.443 66.6449 124.129L62.6135 123.465L66.6449 122.801C68.5483 122.487 70.0402 120.996 70.3537 119.092Z" fill="white" stroke="black"/>
<circle cx="140.463" cy="140.258" r="60" fill="white" fill-opacity="0.4"/>
<circle cx="140.463" cy="140.259" r="43.7197" fill="white" fill-opacity="0.32"/>
<circle cx="140.463" cy="140.259" r="43.2197" stroke="white" stroke-opacity="0.4"/>
<path d="M127.348 125.855H153.579C154.246 125.855 154.906 125.996 155.512 126.268C156.118 126.539 156.657 126.935 157.091 127.429C157.526 127.923 157.846 128.502 158.029 129.127C158.212 129.753 158.254 130.409 158.153 131.052L155.25 149.44C154.998 151.038 154.167 152.495 152.908 153.547C151.65 154.6 150.046 155.178 148.388 155.178H132.537C130.879 155.178 129.276 154.599 128.018 153.547C126.759 152.494 125.929 151.037 125.677 149.44L122.774 131.052C122.673 130.409 122.715 129.753 122.898 129.127C123.081 128.502 123.401 127.923 123.836 127.429C124.27 126.935 124.809 126.539 125.415 126.268C126.021 125.996 126.68 125.855 127.348 125.855Z" fill="white" stroke="black" stroke-width="2" stroke-linecap="round" stroke-linejoin="round"/>
<path d="M133.522 129.698V121.345C133.522 119.55 134.254 117.829 135.555 116.56C136.857 115.291 138.622 114.578 140.463 114.578C142.303 114.578 144.069 115.291 145.37 116.56C146.672 117.829 147.403 119.55 147.403 121.345V129.698" stroke="black" stroke-width="2" stroke-linecap="round" stroke-linejoin="round"/>
<path d="M187.933 97.9833L188.226 96.2053L188.519 97.9833C188.832 99.8867 190.324 101.379 192.227 101.692L194.005 101.985L192.227 102.278C190.324 102.591 188.832 104.083 188.519 105.987L188.226 107.765L187.933 105.987C187.619 104.083 186.127 102.591 184.224 102.278L182.446 101.985L184.224 101.692C186.127 101.379 187.619 99.8867 187.933 97.9833Z" fill="white" stroke="black"/>
<path d="M140.171 142.042L140.464 140.264L140.756 142.042C141.07 143.945 142.562 145.437 144.465 145.751L146.243 146.044L144.465 146.336C142.562 146.65 141.07 148.142 140.756 150.045L140.464 151.823L140.171 150.045C139.857 148.142 138.365 146.65 136.462 146.336L134.684 146.044L136.462 145.751C138.365 145.437 139.857 143.945 140.171 142.042Z" fill="#6CF600" stroke="black"/>
<defs>
<filter id="filter0_f_22304_27347" x="0.463379" y="0.259766" width="280" height="280" filterUnits="userSpaceOnUse" color-interpolation-filters="sRGB">
<feFlood flood-opacity="0" result="BackgroundImageFix"/>
<feBlend mode="normal" in="SourceGraphic" in2="BackgroundImageFix" result="shape"/>
<feGaussianBlur stdDeviation="40" result="effect1_foregroundBlur_22304_27347"/>
</filter>
<radialGradient id="paint0_radial_22304_27347" cx="0" cy="0" r="1" gradientUnits="userSpaceOnUse" gradientTransform="translate(124.042 80.2598) rotate(77.1034) scale(123.105)">
<stop stop-color="#59F9F3"/>
<stop offset="1" stop-color="#BDF690"/>
</radialGradient>
</defs>
</svg>
