<svg width="40" height="40" viewBox="0 0 40 40" fill="none" xmlns="http://www.w3.org/2000/svg">
<path d="M25.1308 13.8808C25.4042 13.6074 25.8477 13.6074 26.121 13.8808C26.3942 14.1542 26.3943 14.5977 26.121 14.871L20.9912 20.0009L26.121 25.1308C26.3942 25.4042 26.3943 25.8477 26.121 26.121C25.8477 26.3943 25.4042 26.3942 25.1308 26.121L20.0009 20.9912L14.871 26.121C14.5977 26.3943 14.1542 26.3942 13.8808 26.121C13.6074 25.8477 13.6074 25.4042 13.8808 25.1308L19.0107 20.0009L13.8808 14.871C13.6074 14.5977 13.6074 14.1542 13.8808 13.8808C14.1542 13.6074 14.5977 13.6074 14.871 13.8808L20.0009 19.0107L25.1308 13.8808Z" fill="#273025"/>
</svg>
