<svg width="40" height="40" viewBox="0 0 40 40" fill="none" xmlns="http://www.w3.org/2000/svg">
<path d="M3.33301 8.33333C3.33301 7.44928 3.6842 6.60143 4.30932 5.97631C4.93444 5.35119 5.78229 5 6.66634 5H33.333C34.2171 5 35.0649 5.35119 35.69 5.97631C36.3152 6.60143 36.6663 7.44928 36.6663 8.33333C36.6663 9.21739 36.3152 10.0652 35.69 10.6904C35.0649 11.3155 34.2171 11.6667 33.333 11.6667H6.66634C5.78229 11.6667 4.93444 11.3155 4.30932 10.6904C3.6842 10.0652 3.33301 9.21739 3.33301 8.33333Z" fill="url(#paint0_linear_23034_2261)"/>
<path d="M31.667 15C32.522 15 33.227 15.7717 33.322 16.7667L33.3337 17V29C33.3337 32.195 31.252 34.8067 28.627 34.99L28.3337 35H11.667C9.00366 35 6.82699 32.5017 6.67533 29.3533L6.66699 29V17C6.66699 15.895 7.41366 15 8.33366 15H31.667ZM23.3337 18.3333H16.667L16.472 18.345C16.0669 18.3932 15.6936 18.5883 15.4227 18.8933C15.1518 19.1983 15.0022 19.5921 15.0022 20C15.0022 20.4079 15.1518 20.8017 15.4227 21.1067C15.6936 21.4117 16.0669 21.6068 16.472 21.655L16.667 21.6667H23.3337L23.5287 21.655C23.9337 21.6068 24.3071 21.4117 24.578 21.1067C24.8489 20.8017 24.9985 20.4079 24.9985 20C24.9985 19.5921 24.8489 19.1983 24.578 18.8933C24.3071 18.5883 23.9337 18.3932 23.5287 18.345L23.3337 18.3333Z" fill="url(#paint1_linear_23034_2261)"/>
<defs>
<linearGradient id="paint0_linear_23034_2261" x1="27.9815" y1="13.0632" x2="27.4747" y2="5.0481" gradientUnits="userSpaceOnUse">
<stop stop-color="#6CF600"/>
<stop offset="1" stop-color="#3CF8F1"/>
</linearGradient>
<linearGradient id="paint1_linear_23034_2261" x1="26.3858" y1="39.1896" x2="20.9662" y2="16.3332" gradientUnits="userSpaceOnUse">
<stop stop-color="#6CF600"/>
<stop offset="1" stop-color="#3CF8F1"/>
</linearGradient>
</defs>
</svg>
