<svg width="33" height="32" viewBox="0 0 33 32" fill="none" xmlns="http://www.w3.org/2000/svg">
<rect width="32" height="32" transform="translate(0.0585938)" fill="#273025"/>
<path d="M11.29 13.083H7.54492V24.3479H11.29V13.083Z" fill="#CFD5CB"/>
<path d="M9.44272 7.65137C8.16141 7.65137 7.32422 8.49374 7.32422 9.59783C7.32422 10.6787 8.13595 11.5443 9.39315 11.5443H9.41734C10.7232 11.5443 11.536 10.6787 11.536 9.59783C11.5118 8.49374 10.7233 7.65137 9.44272 7.65137Z" fill="#CFD5CB"/>
<path d="M20.4801 12.8184C18.4936 12.8184 17.6037 13.9108 17.1055 14.6782V13.0833H13.3613C13.411 14.1399 13.3613 24.3482 13.3613 24.3482H17.1054V18.057C17.1054 17.7203 17.1296 17.3836 17.2289 17.143C17.4991 16.4705 18.1156 15.7739 19.15 15.7739C20.5043 15.7739 21.0469 16.8073 21.0469 18.321V24.3482H24.7911V17.8882C24.7911 14.428 22.9437 12.8184 20.4801 12.8184Z" fill="#CFD5CB"/>
</svg>
