<svg width="33" height="32" viewBox="0 0 33 32" fill="none" xmlns="http://www.w3.org/2000/svg">
<rect width="32" height="32" transform="translate(0.0585938)" fill="#273025"/>
<path d="M12.1627 24.5C20.0872 24.5 24.4216 17.959 24.4216 12.2867C24.4216 12.101 24.4216 11.916 24.409 11.7319C25.2522 11.1242 25.9802 10.3719 26.5586 9.51C25.7723 9.85713 24.9381 10.0847 24.084 10.1853C24.9832 9.64906 25.6566 8.80491 25.9781 7.81113C25.1324 8.31109 24.2071 8.66349 23.2423 8.85305C22.4276 7.98999 21.2898 7.5 20.1008 7.5C17.7349 7.5 15.7882 9.43951 15.7882 11.7965C15.7882 12.1235 15.8257 12.4494 15.8998 12.7679C12.4374 12.595 9.20689 10.9634 7.02019 8.28314C5.88307 10.2334 6.47144 12.7607 8.3541 14.0132C7.66852 13.9929 6.99767 13.8086 6.39859 13.4759V13.5303C6.39917 15.5658 7.85247 17.3351 9.85519 17.7381C9.22092 17.9104 8.55528 17.9356 7.90977 17.8117C8.47279 19.556 10.0964 20.7583 11.935 20.7927C10.4097 21.987 8.52431 22.6357 6.58423 22.6338C6.24142 22.6331 5.89894 22.6125 5.55859 22.5718C7.52874 23.8314 9.82176 24.4998 12.1627 24.4966" fill="#CFD5CB"/>
</svg>
