<svg width="33" height="32" viewBox="0 0 33 32" fill="none" xmlns="http://www.w3.org/2000/svg">
<rect width="32" height="32" transform="translate(0.0585938)" fill="#273025"/>
<path d="M24.2414 19.9956C22.0816 19.6396 21.0975 17.4552 20.9924 17.2073C20.9904 17.2024 20.9821 17.185 20.9798 17.1798C20.8716 16.9599 20.8447 16.7814 20.9013 16.6497C21.0147 16.3814 21.4951 16.2294 21.8028 16.1321C21.8893 16.1041 21.9705 16.0784 22.035 16.0527C22.6572 15.807 22.9694 15.493 22.9628 15.1189C22.9568 14.8221 22.724 14.5495 22.3792 14.4276C22.2604 14.3778 22.119 14.3507 21.9813 14.3507C21.8862 14.3507 21.7448 14.3642 21.6097 14.4273C21.3463 14.5504 21.112 14.6167 20.9349 14.6244C20.8561 14.6212 20.7964 14.6081 20.7533 14.5935C20.7587 14.5001 20.765 14.4041 20.771 14.3061L20.7741 14.2562C20.8475 13.091 20.9386 11.641 20.5507 10.772C19.4035 8.19995 16.9689 8 16.2499 8L15.9145 8.00315C15.1969 8.00315 12.7669 8.20283 11.6208 10.7734C11.232 11.6444 11.324 13.0938 11.3977 14.2587C11.4048 14.3733 11.412 14.485 11.4183 14.5938C11.3691 14.6107 11.2983 14.6255 11.202 14.6255C10.9958 14.6255 10.7487 14.5587 10.4679 14.4273C10.0619 14.237 9.31982 14.4913 9.21952 15.018C9.16496 15.3031 9.27981 15.7142 10.1362 16.0527C10.2027 16.079 10.2865 16.1058 10.3893 16.1384C10.6764 16.2295 11.1568 16.3818 11.2705 16.6494C11.3268 16.7817 11.3 16.9602 11.1814 17.2022C11.1391 17.3007 10.1219 19.6166 7.87522 19.9865C7.64213 20.0247 7.47585 20.2316 7.48901 20.4669C7.49273 20.5323 7.50786 20.5981 7.53584 20.6643C7.72468 21.106 8.44366 21.4125 9.79711 21.6273C9.8268 21.7041 9.86138 21.8618 9.8811 21.9532C9.90965 22.0838 9.93965 22.2186 9.98052 22.3583C10.0217 22.4997 10.1439 22.7368 10.4976 22.7368C10.6172 22.7368 10.7558 22.7097 10.9063 22.6805C11.1228 22.638 11.4188 22.5803 11.7859 22.5803C11.9895 22.5803 12.2015 22.5985 12.416 22.634C12.8208 22.7011 13.1759 22.9522 13.5878 23.2433C14.1942 23.6721 14.7456 24 15.8482 24C15.8773 24 15.9062 23.9991 15.9345 23.9972C15.9753 23.9992 16.0164 24 16.0582 24C17.024 24 17.8741 23.7449 18.5854 23.2424C18.9784 22.9642 19.3498 22.7014 19.7548 22.634C19.9699 22.5986 20.1822 22.5803 20.3858 22.5803C20.7378 22.5803 21.0186 22.6254 21.2691 22.6746C21.4385 22.708 21.571 22.724 21.6933 22.724C21.9401 22.724 22.1218 22.5883 22.1912 22.3515C22.2312 22.2138 22.2612 22.083 22.2903 21.9493C22.3058 21.8782 22.3429 21.7079 22.3743 21.6259C23.7083 21.4137 24.3896 21.1192 24.5782 20.6787C24.6065 20.6153 24.623 20.5481 24.6276 20.4767C24.6402 20.2412 24.4745 20.0344 24.2414 19.9956Z" fill="#CFD5CB"/>
</svg>
