<svg width="21" height="18" viewBox="0 0 21 18" fill="none" xmlns="http://www.w3.org/2000/svg">
<path d="M6.60409 17.5C14.5286 17.5 18.863 10.959 18.863 5.28671C18.863 5.10095 18.863 4.91601 18.8505 4.73188C19.6937 4.12421 20.4216 3.37188 21 2.51C20.2137 2.85713 19.3795 3.08474 18.5254 3.18534C19.4246 2.64906 20.098 1.80491 20.4195 0.81113C19.5738 1.31109 18.6485 1.66349 17.6837 1.85305C16.869 0.989986 15.7313 0.5 14.5422 0.5C12.1763 0.5 10.2296 2.43951 10.2296 4.79648C10.2296 5.12347 10.2671 5.44943 10.3412 5.76791C6.87877 5.59502 3.6483 3.96337 1.46159 1.28314C0.324474 3.23336 0.912843 5.76072 2.7955 7.01317C2.10993 6.99294 1.43907 6.80865 0.84 6.4759V6.53029C0.840574 8.56583 2.29388 10.3351 4.29659 10.7381C3.66233 10.9104 2.99668 10.9356 2.35118 10.8117C2.9142 12.556 4.53776 13.7583 6.37645 13.7927C4.85108 14.987 2.96572 15.6357 1.02564 15.6338C0.682828 15.6331 0.340348 15.6125 0 15.5718C1.97014 16.8314 4.26316 17.4998 6.60409 17.4966" fill="white"/>
</svg>
