<svg width="15" height="13" viewBox="0 0 15 13" fill="none" xmlns="http://www.w3.org/2000/svg">
<path fill-rule="evenodd" clip-rule="evenodd" d="M8.83462 0.37983C8.56126 0.106463 8.11804 0.106463 7.84467 0.37983C7.57131 0.653197 7.57131 1.09641 7.84467 1.36978L12.2747 5.7998H0.839648C0.453049 5.7998 0.139648 6.11321 0.139648 6.4998C0.139648 6.8864 0.453049 7.1998 0.839648 7.1998H12.2747L7.84467 11.6298C7.57131 11.9032 7.57131 12.3464 7.84467 12.6198C8.11804 12.8931 8.56126 12.8931 8.83462 12.6198L14.4596 6.99478C14.5267 6.92767 14.5774 6.85031 14.6115 6.76775C14.6446 6.688 14.6634 6.60082 14.6646 6.5094C14.6648 6.49501 14.6645 6.48061 14.6638 6.46623C14.6558 6.29843 14.5878 6.13297 14.4596 6.00483L8.83462 0.37983Z" fill="currentColor"/>
</svg>
