<svg width="18" height="18" viewBox="0 0 18 18" fill="none" xmlns="http://www.w3.org/2000/svg">
<path d="M4.49803 5.93213H0.75293V17.1971H4.49803V5.93213Z" fill="white"/>
<path d="M2.65072 0.5C1.36942 0.5 0.532227 1.34237 0.532227 2.44646C0.532227 3.52735 1.34396 4.39296 2.60116 4.39296H2.62535C3.9312 4.39296 4.74403 3.52735 4.74403 2.44646C4.71979 1.34237 3.93129 0.5 2.65072 0.5Z" fill="white"/>
<path d="M13.6891 5.66724C11.7025 5.66724 10.8127 6.7597 10.3145 7.52706V5.93213H6.57031C6.61996 6.98879 6.57031 17.197 6.57031 17.197H10.3144V10.9059C10.3144 10.5692 10.3386 10.2325 10.4379 9.99187C10.7081 9.31936 11.3246 8.62275 12.359 8.62275C13.7133 8.62275 14.2558 9.65614 14.2558 11.1698V17.197H18.0001V10.7371C18.0001 7.27688 16.1527 5.66724 13.6891 5.66724Z" fill="white"/>
</svg>
