<svg width="33" height="32" viewBox="0 0 33 32" fill="none" xmlns="http://www.w3.org/2000/svg">
<rect width="32" height="32" transform="translate(0.0585938)" fill="#273025"/>
<path fill-rule="evenodd" clip-rule="evenodd" d="M15.9594 8C11.5778 8 8.05859 11.5477 8.05859 15.9668C8.05859 19.2468 9.9842 21.9915 12.773 23.2637C12.773 21.7697 12.7626 21.9622 13.901 17.1043C13.2754 15.8418 13.7618 13.7574 15.1626 13.7574C17.1066 13.7574 15.7858 16.6396 15.561 17.7738C15.3618 18.6443 16.0258 19.3141 16.8226 19.3141C18.3498 19.3141 19.345 17.3722 19.345 15.0965C19.345 13.3556 18.1506 12.0836 16.0922 12.0836C12.4322 12.0836 11.5042 16.1596 12.773 17.4391C13.0922 17.9223 12.773 17.9449 12.773 18.5773C12.5514 19.2461 10.781 18.274 10.781 15.766C10.781 13.4895 12.6402 10.8121 16.4242 10.8121C19.4114 10.8121 21.4034 13.021 21.4034 15.3645C21.4034 18.5106 19.677 20.7871 17.1546 20.7871C16.2914 20.7871 15.4946 20.3181 15.229 19.7824C14.7466 21.6588 14.649 22.6101 13.901 23.6652C14.6314 23.8661 15.3618 24 16.1586 24C20.5402 24 24.0586 20.4523 24.0586 16.034C23.8602 11.548 20.341 8 15.9594 8Z" fill="#CFD5CB"/>
</svg>
