<svg width="33" height="32" viewBox="0 0 33 32" fill="none" xmlns="http://www.w3.org/2000/svg">
<rect width="32" height="32" transform="translate(0.0585938)" fill="#273025"/>
<mask id="mask0_26331_23491" style="mask-type:luminance" maskUnits="userSpaceOnUse" x="7" y="7" width="18" height="18">
<path d="M12.5383 7.55885C11.6339 7.60153 11.0162 7.74641 10.4764 7.95792C9.91759 8.17576 9.44392 8.46768 8.9727 8.94082C8.50095 9.41424 8.21121 9.88876 7.99502 10.4481C7.78572 10.9893 7.64388 11.6073 7.60393 12.5123C7.56429 13.4189 7.55519 13.7081 7.55961 16.0163C7.56402 18.3241 7.5742 18.6138 7.61743 19.5208C7.66066 20.4249 7.80499 21.0424 8.01651 21.5824C8.23462 22.1412 8.52626 22.6146 8.99968 23.0861C9.47283 23.5576 9.94761 23.8471 10.5072 24.0636C11.0479 24.2726 11.6661 24.415 12.5708 24.4546C13.4775 24.4946 13.7669 24.5034 16.0745 24.499C18.3833 24.4946 18.6727 24.4844 19.5793 24.4414C20.4837 24.3982 21.1009 24.2533 21.6413 24.0424C22.2001 23.8237 22.6738 23.5326 23.145 23.0592C23.6162 22.586 23.9059 22.1112 24.1221 21.5516C24.3314 21.011 24.4738 20.3927 24.5132 19.4885C24.5528 18.5814 24.5622 18.2916 24.5578 15.9837C24.5534 13.6756 24.5429 13.3864 24.5 12.4801C24.457 11.5751 24.3121 10.9579 24.1009 10.4176C23.8825 9.85877 23.5911 9.38563 23.118 8.91386C22.6448 8.44264 22.1701 8.15237 21.6104 7.93672C21.0695 7.72742 20.4515 7.58475 19.5468 7.54565C18.6402 7.50543 18.3507 7.49663 16.0423 7.50103C13.7344 7.50545 13.445 7.51536 12.5383 7.55886M12.6375 22.9248C11.8088 22.8887 11.3588 22.751 11.0589 22.6356C10.6618 22.4819 10.3784 22.2977 10.0801 22.0016C9.78239 21.7044 9.5976 21.4219 9.44254 21.0256C9.32604 20.7257 9.18587 20.2762 9.14704 19.4475C9.10488 18.5516 9.09526 18.2828 9.09111 16.0132C9.08672 13.7442 9.09497 13.4754 9.13409 12.5787C9.16962 11.7505 9.30815 11.3 9.42326 11.0003C9.57694 10.6026 9.76061 10.3198 10.0572 10.0215C10.3544 9.72327 10.637 9.53902 11.0336 9.38398C11.3332 9.26692 11.7827 9.12784 12.6111 9.08847C13.5075 9.04605 13.776 9.03696 16.0451 9.03256C18.3147 9.02814 18.5835 9.03613 19.4802 9.07552C20.3083 9.11159 20.7589 9.24875 21.0582 9.36469C21.4556 9.51837 21.739 9.70151 22.037 9.99867C22.335 10.2958 22.5198 10.5779 22.6749 10.9752C22.7919 11.2741 22.931 11.7241 22.9701 12.5522C23.0128 13.4487 23.0224 13.7174 23.0265 15.9865C23.031 18.2561 23.0227 18.5249 22.9833 19.4211C22.9472 20.2498 22.8098 20.7 22.6941 21.0002C22.5405 21.3971 22.3568 21.6805 22.0599 21.9787C21.763 22.2759 21.4804 22.4612 21.0836 22.6163C20.7845 22.7331 20.3345 22.8724 19.5066 22.9118C18.6102 22.9539 18.3417 22.9636 16.0718 22.9677C13.8027 22.9721 13.5342 22.9636 12.6375 22.9248ZM19.5669 11.4564C19.568 12.0193 20.0257 12.4751 20.5887 12.474C21.1519 12.4729 21.6077 12.0155 21.6068 11.4525C21.6057 10.8896 21.148 10.4335 20.5848 10.4346C20.0216 10.4357 19.5658 10.8935 19.5669 11.4564M11.6942 16.0082C11.6989 18.4188 13.6568 20.3687 16.0668 20.364C18.4772 20.3593 20.4281 18.4021 20.4234 15.9914C20.4188 13.5817 18.4606 11.6307 16.05 11.6354C13.64 11.6401 11.6896 13.5982 11.6942 16.0082ZM13.2252 16.0052C13.2224 14.4406 14.4888 13.1697 16.0531 13.1669C17.6176 13.1639 18.8889 14.4296 18.8919 15.9945C18.895 17.5593 17.6286 18.83 16.0638 18.8331C14.4995 18.8361 13.2282 17.5701 13.2252 16.0052Z" fill="white"/>
</mask>
<g mask="url(#mask0_26331_23491)">
<mask id="mask1_26331_23491" style="mask-type:luminance" maskUnits="userSpaceOnUse" x="6" y="6" width="20" height="20">
<path d="M6.87109 6.83398H25.2313V25.1942H6.87109V6.83398Z" fill="white"/>
</mask>
<g mask="url(#mask1_26331_23491)">
<mask id="mask2_26331_23491" style="mask-type:luminance" maskUnits="userSpaceOnUse" x="6" y="6" width="20" height="20">
<path d="M6.78516 6.74902H25.3154V25.2793H6.78516V6.74902Z" fill="white"/>
</mask>
<g mask="url(#mask2_26331_23491)">
<mask id="mask3_26331_23491" style="mask-type:luminance" maskUnits="userSpaceOnUse" x="6" y="6" width="20" height="20">
<path d="M6.78516 6.74902H25.3154V25.2793H6.78516V6.74902Z" fill="white"/>
</mask>
<g mask="url(#mask3_26331_23491)">
<rect x="6.7793" y="6.74609" width="18.5397" height="18.5395" fill="#CFD5CB"/>
</g>
</g>
</g>
</g>
</svg>
