<svg width="16" height="12" viewBox="0 0 16 12" fill="none" xmlns="http://www.w3.org/2000/svg">
<path fill-rule="evenodd" clip-rule="evenodd" d="M0.511719 0.894376C0.511719 0.518406 0.816502 0.213623 1.19247 0.213623H14.8075C15.1835 0.213623 15.4883 0.518406 15.4883 0.894376C15.4883 1.27035 15.1835 1.57513 14.8075 1.57513H1.19247C0.816502 1.57513 0.511719 1.27035 0.511719 0.894376ZM0.511719 6.00004C0.511719 5.62407 0.816502 5.31928 1.19247 5.31928H14.8075C15.1835 5.31928 15.4883 5.62407 15.4883 6.00004C15.4883 6.37601 15.1835 6.68079 14.8075 6.68079H1.19247C0.816502 6.68079 0.511719 6.37601 0.511719 6.00004ZM1.19247 10.4249C0.816502 10.4249 0.511719 10.7296 0.511719 11.1056C0.511719 11.4816 0.816502 11.7864 1.19247 11.7864H14.8075C15.1835 11.7864 15.4883 11.4816 15.4883 11.1056C15.4883 10.7296 15.1835 10.4249 14.8075 10.4249H1.19247Z" fill="black"/>
</svg>
