<svg width="17" height="18" viewBox="0 0 17 18" fill="none" xmlns="http://www.w3.org/2000/svg">
<mask id="mask0_24372_32560" style="mask-type:luminance" maskUnits="userSpaceOnUse" x="0" y="0" width="17" height="18">
<path d="M4.97975 0.558845C4.07534 0.601532 3.4576 0.746406 2.91779 0.95792C2.359 1.17576 1.88532 1.46768 1.41411 1.94082C0.942354 2.41424 0.65262 2.88876 0.436428 3.44811C0.227122 3.98927 0.0852893 4.60729 0.0453388 5.51227C0.00569433 6.41891 -0.00340078 6.70808 0.00101927 9.01625C0.00542233 11.3241 0.0156054 11.6138 0.058837 12.5208C0.102068 13.4249 0.2464 14.0424 0.457917 14.5824C0.676029 15.1412 0.967668 15.6146 1.44109 16.0861C1.91424 16.5576 2.38902 16.8471 2.94865 17.0636C3.48926 17.2726 4.10755 17.415 5.01225 17.4546C5.91887 17.4946 6.20832 17.5034 8.51594 17.499C10.8247 17.4946 11.1141 17.4844 12.0207 17.4414C12.9252 17.3982 13.5423 17.2533 14.0827 17.0424C14.6415 16.8237 15.1152 16.5326 15.5864 16.0592C16.0576 15.586 16.3473 15.1112 16.5635 14.5516C16.7728 14.011 16.9152 13.3927 16.9546 12.4885C16.9942 11.5814 17.0036 11.2916 16.9992 8.98375C16.9948 6.67559 16.9843 6.38642 16.9414 5.48005C16.8984 4.57509 16.7535 3.95791 16.5423 3.41756C16.3239 2.85877 16.0325 2.38563 15.5594 1.91386C15.0863 1.44264 14.6115 1.15237 14.0518 0.936721C13.5109 0.727417 12.8929 0.584753 11.9882 0.545653C11.0816 0.505431 10.7922 0.496625 8.48371 0.501028C6.17583 0.505448 5.8864 0.515359 4.97975 0.558862M5.07891 15.9248C4.25022 15.8887 3.80021 15.751 3.50029 15.6356C3.10317 15.4819 2.81977 15.2977 2.5215 15.0016C2.2238 14.7044 2.039 14.4219 1.88394 14.0256C1.76744 13.7257 1.62728 13.2762 1.58845 12.4475C1.54629 11.5516 1.53666 11.2828 1.53252 9.01321C1.52813 6.74417 1.53638 6.47537 1.57549 5.57865C1.61102 4.75051 1.74956 4.29996 1.86467 4.00032C2.01835 3.60262 2.20202 3.3198 2.49864 3.02153C2.7958 2.72327 3.07836 2.53902 3.47496 2.38398C3.77459 2.26692 4.22406 2.12784 5.05246 2.08847C5.94891 2.04605 6.21742 2.03696 8.48647 2.03256C10.7561 2.02814 11.0249 2.03613 11.9216 2.07552C12.7497 2.11159 13.2003 2.24875 13.4997 2.36469C13.8971 2.51837 14.1804 2.70151 14.4784 2.99867C14.7764 3.29583 14.9612 3.57786 15.1163 3.97525C15.2333 4.27406 15.3724 4.72408 15.4115 5.55222C15.4542 6.44866 15.4638 6.71745 15.4679 8.9865C15.4724 11.2561 15.4641 11.5249 15.4247 12.4211C15.3886 13.2498 15.2512 13.7 15.1356 14.0002C14.9819 14.3971 14.7982 14.6805 14.5013 14.9787C14.2044 15.2759 13.9219 15.4612 13.525 15.6163C13.2259 15.7331 12.7759 15.8724 11.948 15.9118C11.0516 15.9539 10.7831 15.9636 8.51319 15.9677C6.24414 15.9721 5.97562 15.9636 5.07891 15.9248ZM12.0083 4.4564C12.0094 5.01932 12.4671 5.4751 13.0301 5.47402C13.5933 5.47291 14.0491 5.01546 14.0483 4.45252C14.0471 3.8896 13.5894 3.43354 13.0262 3.43465C12.463 3.43574 12.0072 3.89346 12.0083 4.45638M4.13566 9.00824C4.14033 11.4188 6.09818 13.3687 8.50823 13.364C10.9186 13.3593 12.8695 11.4021 12.8649 8.99145C12.8602 6.58167 10.902 4.6307 8.49143 4.63537C6.08136 4.64007 4.13096 6.59819 4.13566 9.00824ZM5.66661 9.00522C5.66385 7.44064 6.93017 6.16966 8.49446 6.1669C10.059 6.16388 11.3303 7.42963 11.3333 8.99447C11.3364 10.5593 10.07 11.83 8.5052 11.8331C6.94091 11.8361 5.66963 10.5701 5.66661 9.00522Z" fill="white"/>
</mask>
<g mask="url(#mask0_24372_32560)">
<mask id="mask1_24372_32560" style="mask-type:luminance" maskUnits="userSpaceOnUse" x="-1" y="-1" width="19" height="20">
<path d="M-0.687012 -0.166016H17.6732V18.1942H-0.687012V-0.166016Z" fill="white"/>
</mask>
<g mask="url(#mask1_24372_32560)">
<mask id="mask2_24372_32560" style="mask-type:luminance" maskUnits="userSpaceOnUse" x="-1" y="-1" width="19" height="20">
<path d="M-0.771973 -0.251221H17.7582V18.279H-0.771973V-0.251221Z" fill="white"/>
</mask>
<g mask="url(#mask2_24372_32560)">
<mask id="mask3_24372_32560" style="mask-type:luminance" maskUnits="userSpaceOnUse" x="-1" y="-1" width="19" height="20">
<path d="M-0.771973 -0.251221H17.7582V18.279H-0.771973V-0.251221Z" fill="white"/>
</mask>
<g mask="url(#mask3_24372_32560)">
<rect x="-0.777832" y="-0.253906" width="18.5397" height="18.5395" fill="white"/>
</g>
</g>
</g>
</g>
</svg>
