<svg width="33" height="32" viewBox="0 0 33 32" fill="none" xmlns="http://www.w3.org/2000/svg">
<rect width="32" height="32" transform="translate(0.0585938)" fill="#273025"/>
<path fill-rule="evenodd" clip-rule="evenodd" d="M13.7605 18.9556V12.5421C16.0373 13.6134 17.8007 14.6483 19.8862 15.7642C18.1661 16.7181 16.0373 17.7885 13.7605 18.9556ZM26.4491 9.35232C26.0564 8.83488 25.387 8.4321 24.6744 8.29875C22.5797 7.90098 9.51198 7.89985 7.41846 8.29875C6.84698 8.40588 6.3381 8.66484 5.90095 9.06717C4.05902 10.7768 4.63619 19.9448 5.08017 21.4299C5.26687 22.0727 5.50822 22.5363 5.81217 22.8406C6.20378 23.2429 6.73996 23.5199 7.35584 23.6442C9.08052 24.0009 17.9658 24.2004 24.6379 23.6977C25.2527 23.5906 25.7968 23.3047 26.226 22.8852C27.929 21.1825 27.813 11.4996 26.4491 9.35232Z" fill="#CFD5CB"/>
</svg>
