<svg width="19" height="17" viewBox="0 0 19 17" fill="none" xmlns="http://www.w3.org/2000/svg">
<path fill-rule="evenodd" clip-rule="evenodd" d="M6.26261 1.73304C5.71524 1.67465 5.16171 1.73023 4.63687 1.89628C4.11203 2.06232 3.62725 2.33524 3.21307 2.69784C2.79889 3.06044 2.46427 3.50488 2.23029 4.00316C1.9963 4.50143 1.86803 5.04276 1.85353 5.59305C1.83904 6.14334 1.93864 6.69067 2.14606 7.20057C2.35349 7.71048 2.66424 8.17191 3.05876 8.55581L3.06318 8.56012L3.06316 8.56013L9.60183 15.036L16.1405 8.56013C16.1577 8.54308 16.1756 8.52709 16.1941 8.51219C16.5611 8.13825 16.8511 7.69544 17.047 7.20897C17.2521 6.69996 17.3499 6.1541 17.3343 5.60556C17.3187 5.05702 17.19 4.5176 16.9564 4.02108C16.7227 3.52454 16.3891 3.08159 15.9763 2.71993C15.5636 2.35827 15.0807 2.0857 14.5578 1.91926C14.0348 1.75283 13.4832 1.69612 12.9374 1.75269C12.3915 1.80925 11.8632 1.97788 11.3856 2.248C10.9079 2.51813 10.4911 2.88394 10.1613 3.32255C10.0287 3.49896 9.8206 3.60248 9.59988 3.60186C9.37917 3.60125 9.17167 3.49657 9.04001 3.31943C8.71164 2.87761 8.29535 2.50858 7.81735 2.23555C7.33934 1.96253 6.80999 1.79143 6.26261 1.73304ZM17.0694 9.61056L10.0944 16.5186C9.8216 16.7888 9.38206 16.7888 9.10925 16.5186L2.08009 9.55691C1.54815 9.03867 1.1291 8.41604 0.849255 7.7281C0.569003 7.03917 0.434432 6.29968 0.454017 5.55618C0.473601 4.81269 0.646916 4.0813 0.963049 3.40808C1.27918 2.73486 1.73128 2.13439 2.29088 1.64448C2.85048 1.15457 3.50546 0.785829 4.21457 0.561485C4.92368 0.337141 5.67156 0.26205 6.41112 0.340942C7.15067 0.419833 7.86588 0.650999 8.51171 1.01988C8.91066 1.24775 9.2778 1.52513 9.60478 1.84461C9.93187 1.52855 10.2985 1.25438 10.6964 1.02936C11.3418 0.664398 12.0556 0.436572 12.793 0.360146C13.5305 0.283719 14.2759 0.360337 14.9824 0.585205C15.6889 0.810072 16.3414 1.17835 16.899 1.66698C17.4566 2.15562 17.9074 2.7541 18.2231 3.42496C18.5388 4.09582 18.7126 4.82462 18.7337 5.56575C18.7548 6.30688 18.6227 7.04439 18.3456 7.73211C18.0686 8.41983 17.6525 9.04297 17.1236 9.56251C17.1062 9.57962 17.0881 9.59564 17.0694 9.61056Z" fill="black"/>
</svg>
