<svg width="34" height="32" viewBox="0 0 34 32" fill="none" xmlns="http://www.w3.org/2000/svg">
<path d="M26.9997 0C28.7678 0 30.4635 0.702379 31.7137 1.95262C32.964 3.20286 33.6663 4.89856 33.6663 6.66667V20C33.6663 21.7681 32.964 23.4638 31.7137 24.714C30.4635 25.9643 28.7678 26.6667 26.9997 26.6667H19.1263L11.1897 31.4283C10.9507 31.5718 10.6795 31.653 10.401 31.6645C10.1224 31.676 9.84549 31.6175 9.59544 31.4943C9.34539 31.3711 9.13023 31.1871 8.96966 30.9593C8.80909 30.7314 8.70824 30.4669 8.67634 30.19L8.66634 30V26.6667H6.99967C5.28927 26.6667 3.64429 26.0093 2.40499 24.8305C1.16568 23.6516 0.426861 22.0416 0.341341 20.3333L0.333008 20V6.66667C0.333008 4.89856 1.03539 3.20286 2.28563 1.95262C3.53587 0.702379 5.23156 0 6.99967 0H26.9997ZM20.333 15H10.333C9.89098 15 9.46706 15.1756 9.1545 15.4882C8.84194 15.8007 8.66634 16.2246 8.66634 16.6667C8.66634 17.1087 8.84194 17.5326 9.1545 17.8452C9.46706 18.1577 9.89098 18.3333 10.333 18.3333H20.333C20.775 18.3333 21.199 18.1577 21.5115 17.8452C21.8241 17.5326 21.9997 17.1087 21.9997 16.6667C21.9997 16.2246 21.8241 15.8007 21.5115 15.4882C21.199 15.1756 20.775 15 20.333 15ZM23.6663 8.33333H10.333C9.89098 8.33333 9.46706 8.50893 9.1545 8.82149C8.84194 9.13405 8.66634 9.55797 8.66634 10C8.66634 10.442 8.84194 10.866 9.1545 11.1785C9.46706 11.4911 9.89098 11.6667 10.333 11.6667H23.6663C24.1084 11.6667 24.5323 11.4911 24.8449 11.1785C25.1574 10.866 25.333 10.442 25.333 10C25.333 9.55797 25.1574 9.13405 24.8449 8.82149C24.5323 8.50893 24.1084 8.33333 23.6663 8.33333Z" fill="url(#paint0_linear_23034_2256)"/>
<defs>
<linearGradient id="paint0_linear_23034_2256" x1="24.9815" y1="38.2994" x2="14.4515" y2="3.23882" gradientUnits="userSpaceOnUse">
<stop stop-color="#6CF600"/>
<stop offset="1" stop-color="#3CF8F1"/>
</linearGradient>
</defs>
</svg>
