<svg width="18" height="18" viewBox="0 0 18 18" fill="none" xmlns="http://www.w3.org/2000/svg">
<path d="M4.23192 6.0835H0.486816V17.3484H4.23192V6.0835Z" fill="#273025"/>
<path d="M2.38461 0.651367C1.1033 0.651367 0.266113 1.49374 0.266113 2.59783C0.266113 3.67872 1.07784 4.54433 2.33505 4.54433H2.35924C3.66509 4.54433 4.47791 3.67872 4.47791 2.59783C4.45368 1.49374 3.66518 0.651367 2.38461 0.651367Z" fill="#273025"/>
<path d="M13.4227 5.8186C11.4362 5.8186 10.5464 6.91107 10.0481 7.67842V6.0835H6.30396C6.35361 7.14016 6.30396 17.3484 6.30396 17.3484H10.0481V11.0573C10.0481 10.7205 10.0722 10.3839 10.1715 10.1432C10.4417 9.47073 11.0582 8.77412 12.0927 8.77412C13.4469 8.77412 13.9895 9.80751 13.9895 11.3212V17.3484H17.7338V10.8884C17.7338 7.42824 15.8863 5.8186 13.4227 5.8186Z" fill="#273025"/>
</svg>
