<svg width="40" height="40" viewBox="0 0 40 40" fill="none" xmlns="http://www.w3.org/2000/svg">
<path d="M20.4434 13.8798C20.7167 13.6065 21.1602 13.6065 21.4336 13.8798L27.0586 19.5048L27.1484 19.6142C27.1654 19.6399 27.1772 19.6681 27.1904 19.6953C27.1962 19.7072 27.2039 19.7182 27.209 19.7304C27.2174 19.7507 27.2221 19.7721 27.2285 19.7929C27.2489 19.8586 27.2637 19.9276 27.2637 19.9999C27.2637 20.0589 27.252 20.1152 27.2383 20.1699C27.2304 20.2013 27.2242 20.2333 27.2119 20.2636C27.2112 20.2654 27.2097 20.2668 27.209 20.2685C27.2063 20.275 27.2021 20.2807 27.1992 20.2871C27.1833 20.3223 27.1656 20.3569 27.1436 20.3896C27.1182 20.4272 27.0905 20.4631 27.0586 20.4951L21.4336 26.1201C21.1603 26.3934 20.7167 26.3932 20.4434 26.1201C20.17 25.8467 20.17 25.4032 20.4434 25.1298L24.873 20.7001H13.4385C13.0519 20.7001 12.7384 20.3865 12.7383 19.9999C12.7383 19.6133 13.0519 19.2998 13.4385 19.2998H24.873L20.4434 14.8701C20.17 14.5967 20.17 14.1532 20.4434 13.8798Z" fill="currentColor"/>
</svg>
