<svg width="15" height="17" viewBox="0 0 15 17" fill="none" xmlns="http://www.w3.org/2000/svg" focusable="false">
<path fill-rule="evenodd" clip-rule="evenodd" d="M6.01291 1.80462C6.0518 1.76573 6.10455 1.74388 6.15955 1.74388H9.43382C9.48882 1.74388 9.54157 1.76573 9.58046 1.80462C9.61935 1.84351 9.64119 1.89625 9.64119 1.95125V3.79576H5.95218V1.95125C5.95218 1.89625 5.97402 1.84351 6.01291 1.80462ZM4.72978 3.79576V1.95125C4.72978 1.57205 4.88041 1.20839 5.14855 0.940254C5.41668 0.67212 5.78035 0.521484 6.15955 0.521484H9.43382C9.81302 0.521484 10.1767 0.67212 10.4448 0.940254C10.713 1.20839 10.8636 1.57206 10.8636 1.95125V3.79576H13.526H14.345C14.6826 3.79576 14.9562 4.0694 14.9562 4.40696C14.9562 4.74452 14.6826 5.01816 14.345 5.01816H14.0891L13.3192 14.2573C13.312 14.8436 13.076 15.4045 12.6608 15.8196C12.2392 16.2413 11.6673 16.4782 11.071 16.4782H4.52244C3.92615 16.4782 3.35427 16.2413 2.93263 15.8196C2.51745 15.4045 2.28142 14.8436 2.27427 14.2573L1.50435 5.01816H1.24792C0.910362 5.01816 0.636719 4.74452 0.636719 4.40696C0.636719 4.0694 0.910362 3.79576 1.24792 3.79576H2.06742H4.72978ZM10.2524 5.01816H5.34098L2.73098 5.01816L3.49439 14.1791C3.4958 14.196 3.4965 14.2129 3.4965 14.2298C3.4965 14.5019 3.60459 14.7629 3.79699 14.9553C3.98939 15.1477 4.25035 15.2558 4.52244 15.2558H11.071C11.3431 15.2558 11.604 15.1477 11.7964 14.9553C11.9888 14.7629 12.0969 14.5019 12.0969 14.2298C12.0969 14.2129 12.0976 14.196 12.099 14.1791L12.8625 5.01816L10.2524 5.01816ZM6.15955 7.07004C6.4971 7.07004 6.77075 7.34368 6.77075 7.68124V12.5927C6.77075 12.9302 6.4971 13.2039 6.15955 13.2039C5.82199 13.2039 5.54835 12.9302 5.54835 12.5927V7.68124C5.54835 7.34368 5.82199 7.07004 6.15955 7.07004ZM10.045 7.68124C10.045 7.34368 9.77138 7.07004 9.43382 7.07004C9.09627 7.07004 8.82263 7.34368 8.82263 7.68124V12.5927C8.82263 12.9302 9.09627 13.2039 9.43382 13.2039C9.77138 13.2039 10.045 12.9302 10.045 12.5927V7.68124Z" fill="#273025"/>
</svg>
