<svg width="15" height="14" viewBox="0 0 15 14" fill="none" xmlns="http://www.w3.org/2000/svg">
<path d="M13.5339 0.425387L13.6046 0.421387L13.6912 0.42672L13.7512 0.437387L13.8332 0.46072L13.9046 0.491387L13.9712 0.529387L14.0312 0.574053L14.0859 0.624053L14.1206 0.663387L14.1752 0.74072L14.2099 0.80472C14.2412 0.871387 14.2612 0.942053 14.2699 1.01539L14.2732 1.08605C14.2732 1.13605 14.2679 1.18539 14.2572 1.23272L14.2339 1.31472L9.87923 13.3661C9.79668 13.5458 9.66429 13.698 9.49779 13.8047C9.33129 13.9114 9.13766 13.9681 8.9399 13.9681C8.76178 13.9686 8.58656 13.923 8.43129 13.8358C8.27602 13.7485 8.146 13.6225 8.0539 13.4701L8.01056 13.3854L5.7759 8.91739L1.32923 6.69339C1.1647 6.61814 1.0228 6.50101 0.917744 6.35371C0.812684 6.20642 0.748138 6.03412 0.730562 5.85405L0.726562 5.75472C0.726562 5.38139 0.927229 5.04005 1.28723 4.84139L1.38056 4.79472L13.3919 0.457387L13.4626 0.437387L13.5339 0.425387Z" fill="currentColor"/>
</svg>
