<svg width="38" height="30" viewBox="0 0 38 30" fill="none" xmlns="http://www.w3.org/2000/svg">
<path d="M21.5004 0C30.1454 0 37.3337 5.07333 37.3337 11.6667C37.3337 16.695 33.1537 20.8383 27.3337 22.5233V28.3333C27.3337 28.7754 27.1581 29.1993 26.8455 29.5118C26.533 29.8244 26.109 30 25.667 30H15.667C15.225 30 14.8011 29.8244 14.4885 29.5118C14.1759 29.1993 14.0004 28.7754 14.0004 28.3333V21.59C12.4682 20.9132 10.9866 20.1273 9.56702 19.2383L9.35035 19.1017L6.73369 21.2817C6.50256 21.4743 6.22359 21.6008 5.92638 21.6477C5.62917 21.6947 5.3248 21.6602 5.04557 21.5481C4.76634 21.436 4.52266 21.2504 4.3404 21.011C4.15814 20.7716 4.04409 20.4873 4.01035 20.1883L4.00035 20V15.2483L3.48369 14.8317C3.10183 14.5197 2.72292 14.2041 2.34702 13.885L1.23035 12.915C1.05356 12.7586 0.912006 12.5665 0.815055 12.3513C0.718104 12.136 0.667969 11.9027 0.667969 11.6667C0.667969 11.4306 0.718104 11.1973 0.815055 10.9821C0.912006 10.7669 1.05356 10.5747 1.23035 10.4183C1.96877 9.76477 2.71946 9.12522 3.48202 8.5L4.00035 8.08333V3.33333C4.0001 3.03235 4.08136 2.73691 4.23551 2.47839C4.38965 2.21987 4.61093 2.00792 4.87584 1.86504C5.14075 1.72216 5.43941 1.65368 5.7401 1.66688C6.0408 1.68008 6.33231 1.77446 6.58369 1.94L6.73369 2.05333L9.35035 4.23167L9.56369 4.09833C13.737 1.51 17.537 0.135 20.9854 0.00999987L21.5004 0ZM17.3354 22.7617L17.3337 26.6667H24.0004L24.002 23.19C23.1854 23.2856 22.3515 23.3333 21.5004 23.3333C20.305 23.3264 19.1143 23.1855 17.9504 22.9133L17.3354 22.7617Z" fill="url(#paint0_linear_23034_2250)"/>
<defs>
<linearGradient id="paint0_linear_23034_2250" x1="27.7806" y1="36.2845" x2="19.0008" y2="2.34338" gradientUnits="userSpaceOnUse">
<stop stop-color="#6CF600"/>
<stop offset="1" stop-color="#3CF8F1"/>
</linearGradient>
</defs>
</svg>
