<svg width="40" height="40" viewBox="0 0 40 40" fill="none" xmlns="http://www.w3.org/2000/svg">
<path d="M16.3864 4.54102C16.6852 4.54093 16.9785 4.62118 17.2357 4.77336C17.4928 4.92554 17.7043 5.14405 17.8481 5.40602L17.9331 5.58935L21.2664 13.9227C21.4006 14.2579 21.4224 14.6278 21.3283 14.9764C21.2342 15.3251 21.0294 15.6338 20.7447 15.856L20.5781 15.9693L17.7881 17.6427L17.8931 17.8143C19.221 19.9227 21.0047 21.7064 23.1131 23.0343L23.2831 23.1377L24.9581 20.351C25.1437 20.0412 25.425 19.8 25.7595 19.6638C26.0941 19.5276 26.4638 19.5039 26.8131 19.596L27.0047 19.661L35.3381 22.9943C35.6155 23.1051 35.8582 23.2883 36.0405 23.5249C36.2229 23.7615 36.3383 24.0428 36.3747 24.3393L36.3864 24.541V31.2077C36.3864 33.9693 34.1481 36.2077 31.2864 36.2043C16.9881 35.336 5.58973 23.9377 4.71973 9.54102C4.71966 8.26566 5.20694 7.03849 6.08187 6.11058C6.9568 5.18267 8.15324 4.62417 9.42639 4.54935L9.71973 4.54102H16.3864Z" fill="url(#paint0_linear_23034_2268)"/>
<defs>
<linearGradient id="paint0_linear_23034_2268" x1="28.1358" y1="42.8372" x2="17.1514" y2="8.08965" gradientUnits="userSpaceOnUse">
<stop stop-color="#6CF600"/>
<stop offset="1" stop-color="#3CF8F1"/>
</linearGradient>
</defs>
</svg>
