<svg width="13" height="19" viewBox="0 0 13 19" fill="none" xmlns="http://www.w3.org/2000/svg">
<path fill-rule="evenodd" clip-rule="evenodd" d="M6.59355 0.378906C5.41334 0.378906 4.28147 0.847744 3.44693 1.68228C2.61239 2.51682 2.14355 3.64869 2.14355 4.82891C2.14355 6.00912 2.61239 7.14099 3.44693 7.97553C4.28147 8.81007 5.41334 9.27891 6.59355 9.27891C7.77377 9.27891 8.90564 8.81007 9.74018 7.97553C10.5747 7.14099 11.0436 6.00912 11.0436 4.82891C11.0436 3.64869 10.5747 2.51682 9.74018 1.68228C8.90564 0.847744 7.77377 0.378906 6.59355 0.378906ZM4.43688 2.67223C5.00886 2.10024 5.78464 1.77891 6.59355 1.77891C7.40246 1.77891 8.17824 2.10024 8.75023 2.67223C9.32222 3.24422 9.64355 4.02 9.64355 4.82891C9.64355 5.63782 9.32222 6.4136 8.75023 6.98558C8.17824 7.55757 7.40246 7.87891 6.59355 7.87891C5.78464 7.87891 5.00886 7.55757 4.43688 6.98558C3.86489 6.4136 3.54355 5.63782 3.54355 4.82891C3.54355 4.02 3.86489 3.24422 4.43688 2.67223ZM2.56188 13.9222C3.13386 13.3502 3.90964 13.0289 4.71855 13.0289H8.46855C9.27746 13.0289 10.0532 13.3502 10.6252 13.9222C11.1972 14.4942 11.5186 15.27 11.5186 16.0789V17.9539C11.5186 18.3405 11.832 18.6539 12.2186 18.6539C12.6052 18.6539 12.9186 18.3405 12.9186 17.9539V16.0789C12.9186 14.8987 12.4497 13.7668 11.6152 12.9323C10.7806 12.0977 9.64877 11.6289 8.46855 11.6289H4.71855C3.53834 11.6289 2.40647 12.0977 1.57193 12.9323C0.737393 13.7668 0.268555 14.8987 0.268555 16.0789V17.9539C0.268555 18.3405 0.581955 18.6539 0.968555 18.6539C1.35515 18.6539 1.66855 18.3405 1.66855 17.9539V16.0789C1.66855 15.27 1.98989 14.4942 2.56188 13.9222Z" fill="black"/>
</svg>
