<svg width="40" height="40" viewBox="0 0 40 40" fill="none" xmlns="http://www.w3.org/2000/svg">
<rect width="40" height="40" rx="20" fill="#EEF1EC"/>
<path fill-rule="evenodd" clip-rule="evenodd" d="M20.0008 24.9248C17.0482 24.9248 14.5074 23.3615 12.3851 19.9998C14.5074 16.6381 17.0482 15.0748 20.0008 15.0748C22.9534 15.0748 25.4942 16.6381 27.6164 19.9998C25.4942 23.3615 22.9534 24.9248 20.0008 24.9248ZM20.0008 13.6748C16.3069 13.6748 13.2968 15.75 10.963 19.6397C10.83 19.8613 10.83 20.1383 10.963 20.36C13.2968 24.2496 16.3069 26.3248 20.0008 26.3248C23.6947 26.3248 26.7047 24.2496 29.0385 20.36C29.1715 20.1383 29.1715 19.8613 29.0385 19.6397C26.7047 15.75 23.6947 13.6748 20.0008 13.6748ZM20.001 17.4248C19.3181 17.4248 18.6631 17.6961 18.1802 18.179C17.6973 18.6619 17.426 19.3169 17.426 19.9998C17.426 20.6827 17.6973 21.3377 18.1802 21.8206C18.6631 22.3035 19.3181 22.5748 20.001 22.5748C20.684 22.5748 21.3389 22.3035 21.8218 21.8206C22.3047 21.3377 22.576 20.6827 22.576 19.9998C22.576 19.3169 22.3047 18.6619 21.8218 18.179C21.3389 17.6961 20.684 17.4248 20.001 17.4248ZM19.1702 19.169C19.3905 18.9486 19.6894 18.8248 20.001 18.8248C20.3127 18.8248 20.6115 18.9486 20.8319 19.169C21.0522 19.3893 21.176 19.6882 21.176 19.9998C21.176 20.3114 21.0522 20.6103 20.8319 20.8307C20.6115 21.051 20.3127 21.1748 20.001 21.1748C19.6894 21.1748 19.3905 21.051 19.1702 20.8307C18.9498 20.6103 18.826 20.3114 18.826 19.9998C18.826 19.6882 18.9498 19.3893 19.1702 19.169Z" fill="#273025"/>
</svg>
