<svg width="25" height="22" viewBox="0 0 25 22" fill="none" xmlns="http://www.w3.org/2000/svg">
<path fill-rule="evenodd" clip-rule="evenodd" d="M8.44262 2.3924C7.7272 2.31608 7.00374 2.38872 6.31777 2.60574C5.63181 2.82276 4.99821 3.17946 4.45688 3.65338C3.91555 4.1273 3.4782 4.70818 3.17239 5.35942C2.86658 6.01067 2.69892 6.71818 2.67997 7.4374C2.66103 8.15663 2.79121 8.87198 3.06231 9.53843C3.33341 10.2049 3.73957 10.808 4.2552 11.3097L4.26098 11.3153L4.26096 11.3154L12.807 19.7793L21.353 11.3154C21.3755 11.2931 21.3989 11.2722 21.423 11.2527C21.9027 10.764 22.2817 10.1852 22.5378 9.5494C22.8058 8.88413 22.9336 8.17069 22.9132 7.45375C22.8928 6.73681 22.7247 6.0318 22.4193 5.38284C22.1139 4.73388 21.6778 4.15494 21.1384 3.68225C20.599 3.20957 19.9678 2.85331 19.2843 2.63579C18.6009 2.41826 17.8799 2.34414 17.1665 2.41807C16.4531 2.492 15.7626 2.71239 15.1383 3.06545C14.514 3.4185 13.9692 3.89662 13.5382 4.46987C13.3648 4.70044 13.0929 4.83574 12.8044 4.83493C12.5159 4.83413 12.2447 4.69732 12.0727 4.46579C11.6435 3.88835 11.0994 3.40601 10.4746 3.04917C9.8499 2.69233 9.15803 2.46871 8.44262 2.3924ZM22.567 12.6883L13.4508 21.717C13.0942 22.0702 12.5197 22.0702 12.1632 21.717L2.97608 12.6182C2.28085 11.9408 1.73315 11.127 1.36739 10.2279C1.0011 9.32748 0.825218 8.36096 0.850815 7.38922C0.876412 6.41748 1.10293 5.46156 1.51612 4.58167C1.9293 3.70177 2.52019 2.91695 3.25159 2.27664C3.98298 1.63633 4.83904 1.15439 5.76584 0.861177C6.69264 0.567961 7.67011 0.469818 8.63671 0.572929C9.6033 0.67604 10.5381 0.978172 11.3822 1.4603C11.9036 1.75813 12.3835 2.12066 12.8108 2.53822C13.2383 2.12513 13.7175 1.76679 14.2376 1.47269C15.0811 0.995684 16.014 0.697917 16.9779 0.598028C17.9417 0.498139 18.9159 0.598278 19.8393 0.892179C20.7627 1.18608 21.6155 1.66741 22.3443 2.30606C23.0731 2.9447 23.6623 3.72691 24.0749 4.60372C24.4875 5.48053 24.7147 6.43307 24.7423 7.40172C24.7698 8.37038 24.5972 9.33429 24.235 10.2331C23.8729 11.132 23.3292 11.9464 22.6379 12.6255C22.6151 12.6478 22.5914 12.6688 22.567 12.6883Z" fill="black"/>
</svg>
